<svg version="1.2" xmlns="http://www.w3.org/2000/svg" viewBox="0 0 1546 1742" width="1546" height="1742">
	<title>IOB</title>
	<style>
		.s0 { fill: #004aad } 
	</style>
	<path fill-rule="evenodd" class="s0" d="m1135.4 414l-43.1 48.9-318.9-364.5q-158.4 181.2-316.8 362.9l-43-49.4q180.2-205.7 359.8-411.8 181.2 207.2 362 413.9zm-68.6 78.7l-43.1 48.9q-124.9-143-250.3-286.5-124.4 142.5-248.2 284.9l-43.1-49.5q145.7-166.3 291.3-333.1 146.7 167.3 293.4 335.3zm-317.8 365.6l-43.1 49.4q-160-183.3-320-366.1-158.4 181.2-316.7 362.9l-42.6-49.4 359.3-411.3q181.3 207.2 363.1 414.5zm249.2-287l-42.5 48.9-182.3-207.8-180.2 206.2-42.5-49.4q111.6-127.5 222.7-255.1 112.7 128.6 224.8 257.2zm-317.8 365.6l-43.1 49.4q-125.4-144-251.4-288-123.8 142.4-248.2 284.9l-43-49.5q145.6-166.3 291.2-333.2 147.3 168.5 294.5 336.4zm-294.5-179.6l225.9 258.3-42.5 49.4-183.4-209.4-180.1 206.2-42.6-49.4q111.7-127.6 222.7-255.1zm1134.3 97.3l-43.1 48.8-316.8-362.4q-158.9 181.8-317.8 364l-43.1-49.4q180.8-206.2 360.9-412.3 180.2 205.1 359.9 411.3zm-68.6 78.6l-42.5 48.9q-124.4-141.9-248.8-284.3-124.3 142.9-249.2 285.9l-43.1-49.4q146.2-166.9 292.3-334.3 145.7 166.3 291.3 333.2zm-68.6 78.7l-6.3 7.4-31.9 36.7-4.3 4.7-180.2-205.6-181.2 207.2-42.5-48.9q112.1-128.6 223.7-256.6 111.7 127.5 222.7 255.1zm-626.1-106.9v98.4q-185.5 212-371.5 424-192.9-220.5-385.3-441.1v-98.3q192.4 220.6 385.3 441.6 185.5-212.5 371.5-424.6zm788.8-19.6v97.8q-193.5 221.6-387 442.6-184.9-212-370.4-424v-97.8q185.5 212 370.4 423.5zm-788.7 176.4v98.3q-186 212.1-371.5 424.6-193-221-385.4-441.6v-98.3q192.4 221.1 385.4 441.6 186-212 371.5-424.6zm401.8 423q193.5-221.6 386.9-442.6v98.3l-386.9 442.1q-185-212-370.4-423.5v-98.3q185.4 212 370.4 424zm-401.8-265.7v97.8q-185.5 212.6-371.5 424.6-193-220.5-385.4-441.6v-97.8q192.4 220.6 385.4 441.1 186-212 371.5-424.1zm788.7-20.2v98.3l-386.9 442.2q-185-211.5-370.4-423.6v-98.3q185.4 212.1 370.4 424.1 193.5-221.1 386.9-442.7z"/>
</svg>