<svg id="visual" viewBox="0 0 1920 400" width="1920" height="400" xmlns="http://www.w3.org/2000/svg" xmlns:xlink="http://www.w3.org/1999/xlink" version="1.1"><g><g transform="translate(1481 163)"><path d="M45.5 -15.3C51.7 4.5 44.6 28 28.9 39.4C13.1 50.8 -11.3 50 -27.2 38.2C-43.2 26.5 -50.6 3.8 -44.7 -15.5C-38.7 -34.9 -19.4 -50.9 0.1 -50.9C19.6 -51 39.2 -35 45.5 -15.3Z" fill="none" stroke="#e29e2f" stroke-width="1"></path></g><g transform="translate(357 63)"><path d="M28.8 -9.8C32.4 1.5 26.8 15.3 16.7 22.5C6.6 29.8 -8 30.4 -17.6 23.6C-27.2 16.8 -31.8 2.5 -28.1 -9.2C-24.3 -20.8 -12.2 -29.7 0.2 -29.8C12.7 -29.8 25.3 -21.1 28.8 -9.8Z" fill="none" stroke="#e29e2f" stroke-width="1"></path></g><g transform="translate(1121 276)"><path d="M7.2 -2.2C8.2 0.6 6.9 4.2 4.5 5.9C2 7.7 -1.7 7.5 -4.2 5.7C-6.6 3.9 -7.9 0.5 -7.1 -2.3C-6.2 -5 -3.1 -6.9 0 -6.9C3.1 -6.9 6.3 -5 7.2 -2.2Z" fill="none" stroke="#e29e2f" stroke-width="1"></path></g><g transform="translate(885 156)"><path d="M31.3 -10C35.6 3.1 30.7 19.3 19.9 27.1C9 35 -7.8 34.4 -18.9 26.2C-30.1 18.1 -35.6 2.4 -31.5 -10.4C-27.4 -23.1 -13.7 -32.9 -0.1 -32.9C13.5 -32.9 27 -23 31.3 -10Z" fill="none" stroke="#e29e2f" stroke-width="1"></path></g><g transform="translate(1849 232)"><path d="M14 -4.7C15.8 1.2 13.5 8.3 8.4 12.1C3.4 15.8 -4.4 16.3 -9.3 12.8C-14.2 9.3 -16.1 1.7 -14 -4.4C-12 -10.6 -6 -15.3 0 -15.3C6.1 -15.3 12.1 -10.6 14 -4.7Z" fill="none" stroke="#e29e2f" stroke-width="1"></path></g><g transform="translate(602 90)"><path d="M45.5 -13.7C51.7 4.1 44.2 27.4 29 38C13.7 48.7 -9.4 46.7 -24.5 35.3C-39.7 23.9 -46.9 3.2 -41.5 -13.7C-36.1 -30.5 -18.1 -43.4 0.8 -43.7C19.7 -43.9 39.4 -31.6 45.5 -13.7Z" fill="none" stroke="#e29e2f" stroke-width="1"></path></g><g transform="translate(165 158)"><path d="M39 -13.1C44.2 3.3 37.7 23 23.4 33.8C9.1 44.6 -12.9 46.3 -27 36.3C-41.2 26.2 -47.4 4.4 -41.6 -12.8C-35.8 -30 -17.9 -42.6 -0.5 -42.4C16.9 -42.3 33.9 -29.4 39 -13.1Z" fill="none" stroke="#e29e2f" stroke-width="1"></path></g><g transform="translate(12 238)"><path d="M46.3 -15.1C52.5 4 44.8 27.5 29.2 38.3C13.7 49.1 -9.7 47.3 -25.3 35.7C-40.8 24.2 -48.7 2.9 -43.2 -15.2C-37.7 -33.3 -18.8 -48.2 0.6 -48.4C20.1 -48.6 40.1 -34.1 46.3 -15.1Z" fill="none" stroke="#e29e2f" stroke-width="1"></path></g><g transform="translate(37 76)"><path d="M9.4 -2.9C10.7 0.8 9.1 5.6 5.8 8C2.5 10.4 -2.5 10.4 -5.6 8.1C-8.7 5.8 -9.8 1.1 -8.6 -2.6C-7.3 -6.3 -3.7 -9.1 0.2 -9.2C4.1 -9.2 8.2 -6.6 9.4 -2.9Z" fill="none" stroke="#e29e2f" stroke-width="1"></path></g><g transform="translate(808 18)"><path d="M40.1 -13.9C45 2.2 37.3 21.5 23.2 31.8C9 42.1 -11.7 43.3 -25 33.8C-38.4 24.3 -44.3 4 -38.9 -12.7C-33.5 -29.4 -16.8 -42.4 0.4 -42.6C17.6 -42.7 35.1 -29.9 40.1 -13.9Z" fill="none" stroke="#e29e2f" stroke-width="1"></path></g><g transform="translate(492 254)"><path d="M27.2 -8.2C31.2 3.4 27.5 18.1 17.8 25.3C8.1 32.5 -7.6 32.3 -17.8 24.8C-28.1 17.3 -32.9 2.5 -29 -9C-25.1 -20.4 -12.6 -28.6 -0.5 -28.5C11.6 -28.3 23.2 -19.8 27.2 -8.2Z" fill="none" stroke="#e29e2f" stroke-width="1"></path></g><g transform="translate(1322 193)"><path d="M17.6 -6C19.9 1.6 17.1 10.6 11 15.1C4.9 19.5 -4.5 19.3 -10.9 14.8C-17.2 10.2 -20.5 1.2 -18.1 -6.3C-15.8 -13.8 -7.9 -20 -0.2 -19.9C7.6 -19.9 15.2 -13.6 17.6 -6Z" fill="none" stroke="#e29e2f" stroke-width="1"></path></g><g transform="translate(1692 135)"><path d="M40.8 -13.4C46.1 3.1 39 23.5 24.7 33.8C10.4 44.2 -11.1 44.5 -24.9 34.4C-38.7 24.4 -44.9 3.9 -39.5 -12.8C-34 -29.5 -17 -42.4 0.4 -42.5C17.7 -42.6 35.5 -30 40.8 -13.4Z" fill="none" stroke="#e29e2f" stroke-width="1"></path></g><g transform="translate(655 275)"><path d="M15.7 -4.8C17.8 1.5 15.3 9.6 10 13.4C4.7 17.2 -3.5 16.6 -8.7 12.7C-14 8.7 -16.2 1.4 -14.3 -4.6C-12.3 -10.6 -6.2 -15.3 0.3 -15.4C6.8 -15.5 13.5 -11 15.7 -4.8Z" fill="none" stroke="#e29e2f" stroke-width="1"></path></g><g transform="translate(1766 386)"><path d="M28.5 -9.8C32.2 2.4 27.4 16.8 17.3 24.3C7.1 31.8 -8.4 32.4 -18.8 25C-29.1 17.7 -34.3 2.4 -30.4 -10C-26.4 -22.5 -13.2 -32.1 -0.4 -32C12.3 -31.9 24.7 -22 28.5 -9.8Z" fill="none" stroke="#e29e2f" stroke-width="1"></path></g><g transform="translate(974 262)"><path d="M45.2 -13.8C51.4 4.4 44.2 27.7 28.5 39.1C12.7 50.6 -11.6 50 -27.7 38.3C-43.8 26.6 -51.6 3.7 -45.6 -14.2C-39.6 -32.1 -19.8 -44.9 -0.1 -44.9C19.5 -44.9 39 -31.9 45.2 -13.8Z" fill="none" stroke="#e29e2f" stroke-width="1"></path></g><g transform="translate(1619 366)"><path d="M27.6 -8.9C31.4 2.6 26.9 16.8 17.2 24C7.4 31.2 -7.7 31.3 -17.4 24.2C-27.1 17.1 -31.3 2.8 -27.5 -8.8C-23.7 -20.3 -11.8 -29.1 0 -29.1C11.9 -29.2 23.9 -20.4 27.6 -8.9Z" fill="none" stroke="#e29e2f" stroke-width="1"></path></g><g transform="translate(1175 74)"><path d="M34.9 -11.7C39.3 2 32.7 19 20.4 27.9C8.1 36.8 -10 37.7 -21.8 29.3C-33.7 20.9 -39.4 3.1 -34.7 -11.1C-30 -25.3 -15 -36 0.1 -36.1C15.3 -36.1 30.6 -25.5 34.9 -11.7Z" fill="none" stroke="#e29e2f" stroke-width="1"></path></g><g transform="translate(339 344)"><path d="M6.9 -2.2C7.8 0.7 6.7 4.2 4.3 5.9C2 7.6 -1.7 7.5 -4.1 5.7C-6.6 4 -7.7 0.5 -6.8 -2.2C-5.9 -5 -3 -7.1 0 -7.1C3 -7.1 5.9 -5 6.9 -2.2Z" fill="none" stroke="#e29e2f" stroke-width="1"></path></g><g transform="translate(1799 3)"><path d="M9.6 -3.1C11 1 9.6 6.1 6.1 8.7C2.7 11.2 -2.7 11.2 -6.2 8.6C-9.7 6.1 -11.3 0.9 -9.9 -3.2C-8.6 -7.4 -4.3 -10.6 -0.1 -10.6C4.1 -10.6 8.3 -7.3 9.6 -3.1Z" fill="none" stroke="#e29e2f" stroke-width="1"></path></g><g transform="translate(1464 359)"><path d="M26.4 -7.8C30.2 3.2 26.5 17.3 17.5 23.8C8.4 30.4 -6 29.3 -15.8 22.1C-25.5 14.9 -30.6 1.7 -27.1 -8.7C-23.7 -19.1 -11.9 -26.6 -0.3 -26.5C11.3 -26.5 22.6 -18.7 26.4 -7.8Z" fill="none" stroke="#e29e2f" stroke-width="1"></path></g><g transform="translate(1389 10)"><path d="M18.5 -5.7C21.1 1.7 18.1 11.3 11.5 16.1C5 20.9 -5.1 20.9 -11.4 16.2C-17.7 11.6 -20.1 2.1 -17.5 -5.4C-15 -12.8 -7.5 -18.3 0.3 -18.4C8 -18.5 16 -13.2 18.5 -5.7Z" fill="none" stroke="#e29e2f" stroke-width="1"></path></g><g transform="translate(1540 12)"><path d="M30.8 -10.3C34.6 1.7 28.6 16.5 17.8 24.4C6.9 32.2 -8.9 33.2 -19.5 25.8C-30 18.4 -35.2 2.6 -31.1 -9.8C-26.9 -22.2 -13.5 -31.3 0 -31.3C13.5 -31.4 27 -22.3 30.8 -10.3Z" fill="none" stroke="#e29e2f" stroke-width="1"></path></g><g transform="translate(142 386)"><path d="M28 -9.7C31.6 2 26.6 15.9 16.9 22.9C7.2 29.9 -7.3 30 -16.6 23.1C-26 16.3 -30.1 2.6 -26.5 -9.2C-22.8 -20.9 -11.4 -30.7 0.4 -30.9C12.2 -31 24.4 -21.4 28 -9.7Z" fill="none" stroke="#e29e2f" stroke-width="1"></path></g><g transform="translate(745 140)"><path d="M17.6 -5.7C19.9 1.5 17 10.4 10.9 14.8C4.8 19.1 -4.5 19 -10.6 14.6C-16.7 10.1 -19.8 1.4 -17.5 -5.7C-15.2 -12.8 -7.6 -18.3 0 -18.3C7.6 -18.3 15.3 -12.9 17.6 -5.7Z" fill="none" stroke="#e29e2f" stroke-width="1"></path></g><g transform="translate(1239 347)"><path d="M10.4 -3.5C11.8 0.9 10.1 6.2 6.5 8.8C3 11.3 -2.5 11.1 -6.2 8.4C-9.9 5.8 -11.8 0.6 -10.5 -3.7C-9.2 -7.9 -4.6 -11.4 -0.1 -11.4C4.5 -11.4 9 -7.9 10.4 -3.5Z" fill="none" stroke="#e29e2f" stroke-width="1"></path></g><g transform="translate(161 14)"><path d="M16.7 -5C19.1 1.9 16.7 10.8 11 14.9C5.2 19.1 -3.8 18.4 -10 13.9C-16.2 9.4 -19.4 1 -17.3 -5.6C-15.1 -12.3 -7.6 -17.2 -0.2 -17.1C7.2 -17.1 14.3 -12 16.7 -5Z" fill="none" stroke="#e29e2f" stroke-width="1"></path></g><g transform="translate(1016 106)"><path d="M18.9 -5.7C21.5 1.9 18.6 11.7 12 16.5C5.5 21.2 -4.7 20.9 -11.3 16C-17.9 11.1 -20.9 1.7 -18.4 -5.8C-15.9 -13.3 -8 -18.8 0.1 -18.9C8.1 -18.9 16.3 -13.4 18.9 -5.7Z" fill="none" stroke="#e29e2f" stroke-width="1"></path></g><g transform="translate(734 397)"><path d="M25 -8.4C28.2 1.7 23.7 14.1 14.8 20.7C5.8 27.3 -7.6 28.1 -16.2 22C-24.7 15.9 -28.4 2.7 -24.9 -7.8C-21.4 -18.4 -10.7 -26.3 0.1 -26.3C10.9 -26.4 21.8 -18.5 25 -8.4Z" fill="none" stroke="#e29e2f" stroke-width="1"></path></g><g transform="translate(295 205)"><path d="M22.1 -7.5C24.8 1.2 20.6 11.9 12.9 17.4C5.2 22.9 -5.9 23.2 -13.3 17.9C-20.6 12.7 -24.1 1.8 -21.3 -7C-18.4 -15.8 -9.2 -22.7 0.2 -22.8C9.7 -22.9 19.4 -16.2 22.1 -7.5Z" fill="none" stroke="#e29e2f" stroke-width="1"></path></g><g transform="translate(496 5)"><path d="M36.5 -11.1C41.7 4.1 36.4 23.5 23.8 32.6C11.2 41.8 -8.7 40.6 -21.7 31C-34.6 21.3 -40.4 3.1 -35.7 -11.5C-30.9 -26.1 -15.4 -37.1 0.1 -37.2C15.7 -37.2 31.3 -26.2 36.5 -11.1Z" stroke="#e29e2f" fill="none" stroke-width="1"></path></g><g transform="translate(575 386)"><path d="M31.6 -9.9C36 3.3 31.3 19.9 20.3 27.9C9.3 35.9 -7.9 35.2 -19 27C-30 18.8 -34.9 2.9 -30.7 -10C-26.5 -22.9 -13.3 -32.8 0.2 -32.8C13.6 -32.9 27.2 -23.1 31.6 -9.9Z" stroke="#e29e2f" fill="none" stroke-width="1"></path></g><g transform="translate(1049 397)"><path d="M21.9 -7.1C24.9 2.2 21.5 13.6 13.9 19.1C6.3 24.7 -5.6 24.3 -13.6 18.5C-21.7 12.7 -25.9 1.5 -23 -7.7C-20.1 -16.9 -10 -24 -0.3 -23.9C9.4 -23.8 18.8 -16.5 21.9 -7.1Z" stroke="#e29e2f" fill="none" stroke-width="1"></path></g><g transform="translate(1906 95)"><path d="M38.3 -12.4C43.3 3.2 36.9 22.6 23.1 32.9C9.3 43.1 -11.8 44.3 -25.2 34.6C-38.6 24.9 -44.2 4.4 -38.7 -11.9C-33.2 -28.1 -16.6 -40.1 0 -40.1C16.6 -40.1 33.2 -28.1 38.3 -12.4Z" stroke="#e29e2f" fill="none" stroke-width="1"></path></g><g transform="translate(832 288)"><path d="M12.5 -4.1C14.1 1.1 12.1 7.5 7.7 10.8C3.2 14.1 -3.7 14.3 -7.9 11.1C-12.1 8 -13.7 1.5 -11.9 -3.8C-10.2 -9.1 -5.1 -13.2 0.2 -13.2C5.4 -13.3 10.8 -9.3 12.5 -4.1Z" stroke="#e29e2f" fill="none" stroke-width="1"></path></g></g></svg>